<?xml version="1.0" standalone="no"?>
<!DOCTYPE svg PUBLIC "-//W3C//DTD SVG 20010904//EN"
 "http://www.w3.org/TR/2001/REC-SVG-20010904/DTD/svg10.dtd">
<svg version="1.0" xmlns="http://www.w3.org/2000/svg"
 width="500.000000pt" height="500.000000pt" viewBox="0 0 500.000000 500.000000"
 preserveAspectRatio="xMidYMid meet">
<metadata>
Created by potrace 1.14, written by Peter Selinger 2001-2017
</metadata>
<g transform="translate(0.000000,500.000000) scale(0.100000,-0.100000)"
fill="#000000" stroke="none">
<path d="M0 2500 l0 -2500 2500 0 2500 0 0 2500 0 2500 -2500 0 -2500 0 0
-2500z m2276 1445 c2 -5 -3 -18 -11 -29 -16 -21 -65 -15 -65 7 0 32 68 51 76
22z m-97 -44 c13 -13 18 -27 14 -42 -4 -13 -8 -19 -10 -13 -2 6 -14 9 -26 7
-34 -7 -50 18 -31 45 19 27 29 27 53 3z m-75 -63 c21 -29 5 -57 -28 -51 -36 7
-50 27 -36 52 14 27 45 27 64 -1z m169 8 c7 -17 -19 -56 -37 -56 -25 0 -39 27
-26 49 12 24 55 28 63 7z m-254 -60 c17 -31 9 -43 -28 -44 -40 -1 -56 19 -39
47 17 28 52 27 67 -3z m168 9 c6 -17 -23 -55 -42 -55 -25 0 -37 27 -23 49 15
24 56 28 65 6z m-251 -64 c21 -30 3 -53 -35 -45 -39 10 -46 20 -33 49 14 30
45 29 68 -4z m164 14 c20 -24 3 -55 -31 -55 -34 0 -46 19 -29 49 12 24 42 27
60 6z m-250 -65 c17 -32 -3 -60 -37 -51 -36 9 -51 34 -34 55 19 22 58 20 71
-4z m166 6 c9 -24 -15 -58 -38 -54 -30 4 -45 32 -29 52 17 20 60 21 67 2z
m157 2 c6 -19 -11 -48 -29 -48 -20 0 -29 27 -14 45 15 18 37 19 43 3z m-410
-61 c22 -35 6 -58 -36 -50 -40 8 -48 20 -34 50 13 30 50 30 70 0z m168 7 c19
-23 -1 -49 -37 -49 -20 0 -30 6 -32 18 -8 40 43 63 69 31z m166 -23 c-2 -22
-7 -27 -24 -26 -13 0 -28 7 -35 14 -11 10 -9 16 10 31 30 25 52 16 49 -19z
m-423 -33 c20 -29 5 -58 -30 -56 -36 3 -50 23 -36 53 14 31 46 32 66 3z m172
-2 c8 -34 -2 -46 -37 -46 -34 0 -46 19 -29 49 16 30 58 28 66 -3z m164 0 c0
-13 -25 -46 -35 -46 -2 0 -11 7 -20 16 -12 12 -13 19 -4 30 15 18 59 18 59 0z
m-418 -61 c14 -32 -3 -54 -37 -47 -35 6 -49 26 -35 51 15 30 57 28 72 -4z
m167 11 c18 -21 -3 -56 -34 -56 -29 0 -47 27 -34 52 12 22 52 24 68 4z m175
-12 c4 -16 2 -31 -5 -38 -8 -8 -10 -5 -4 14 l6 25 -18 -23 c-16 -20 -21 -21
-37 -9 -28 20 -13 57 24 57 22 0 29 -6 34 -26z m-431 -45 c16 -26 1 -49 -32
-49 -35 0 -45 12 -37 46 5 20 12 25 33 22 14 -2 31 -10 36 -19z m173 -3 c8
-34 -2 -46 -36 -46 -35 0 -53 25 -37 52 18 28 65 24 73 -6z m160 -6 c-4 -22
-2 -29 6 -24 6 4 8 3 4 -4 -7 -11 -55 -6 -69 8 -16 15 12 50 40 50 23 0 25 -3
19 -30z m-422 -39 c12 -13 15 -27 11 -41 -6 -19 -12 -21 -38 -16 -44 9 -53 21
-39 51 14 30 42 32 66 6z m173 -4 c6 -13 8 -28 5 -34 -12 -19 -48 -23 -67 -9
-18 13 -18 17 -6 40 18 33 54 35 68 3z m161 7 c26 -18 28 -40 5 -52 -41 -22
-83 24 -51 56 15 15 19 15 46 -4z m798 -60 c5 -18 14 -24 42 -26 27 -2 40 -9
47 -25 7 -16 18 -23 38 -23 19 0 33 -8 45 -27 13 -21 24 -27 44 -25 20 2 30
-4 44 -27 14 -24 23 -29 41 -25 18 5 26 0 40 -25 14 -24 25 -31 49 -31 23 0
34 -6 42 -25 9 -19 19 -25 43 -25 25 0 33 -6 42 -31 10 -26 16 -30 41 -26 23
3 32 -1 45 -24 11 -21 24 -29 44 -29 20 0 31 -7 39 -26 16 -34 0 -58 -41 -62
-17 -2 -31 -7 -31 -11 0 -5 11 -6 23 -4 29 6 57 -20 57 -51 0 -29 -16 -43 -55
-49 l-30 -4 32 -2 c37 -1 58 -30 49 -67 -5 -20 -13 -24 -41 -24 -19 0 -35 -4
-35 -10 0 -5 15 -10 34 -10 39 0 53 -22 42 -66 -5 -19 -13 -24 -39 -25 -29 -2
-29 -2 -5 -6 67 -10 66 -94 -2 -102 l-35 -4 34 -6 c41 -7 56 -28 47 -64 -5
-23 -12 -27 -41 -27 -19 0 -35 -4 -35 -10 0 -5 16 -10 35 -10 29 0 36 -4 41
-27 9 -35 -6 -57 -47 -64 l-34 -6 32 -2 c37 -1 58 -30 49 -67 -5 -19 -13 -24
-39 -24 -27 0 -35 -5 -44 -30 -9 -25 -17 -30 -45 -30 -25 0 -36 -6 -43 -22 -7
-16 -20 -24 -42 -26 -20 -2 -33 -9 -33 -17 0 -22 -30 -45 -59 -45 -20 0 -31
-7 -39 -25 -8 -18 -19 -25 -39 -25 -21 0 -33 -8 -45 -30 -13 -23 -24 -30 -47
-30 -20 0 -34 -7 -41 -20 -8 -14 -21 -20 -45 -20 -27 0 -35 -4 -35 -18 0 -27
-20 -42 -55 -42 -22 0 -33 -6 -40 -22 -15 -34 -58 -35 -83 -4 -12 16 -30 26
-46 26 -16 0 -31 9 -42 25 -11 17 -25 25 -45 25 -22 0 -32 7 -41 25 -8 19 -19
25 -43 25 -17 0 -37 6 -43 12 -10 10 -12 7 -10 -12 3 -21 -2 -26 -26 -28 -16
-2 -33 1 -39 7 -8 8 -5 11 9 11 16 0 17 2 4 10 -13 9 -13 12 3 25 11 7 25 11
33 8 8 -3 14 1 14 11 0 12 -6 15 -24 10 -19 -4 -29 1 -47 25 -15 21 -31 31
-49 31 -14 0 -31 5 -37 11 -8 8 -13 7 -18 -2 -5 -8 -4 -10 3 -5 16 10 15 -17
0 -32 -20 -20 -47 -14 -54 12 -7 29 3 49 20 43 15 -6 43 9 34 18 -3 3 -18 8
-34 11 -15 3 -34 14 -42 25 -8 12 -25 19 -43 19 -25 0 -33 6 -42 30 -9 25 -17
30 -43 30 -23 0 -34 6 -43 26 -6 14 -9 29 -6 33 2 5 -8 7 -24 5 -34 -4 -55 17
-46 46 9 29 60 28 72 -3 7 -19 13 -21 43 -16 30 6 31 7 8 8 -38 2 -65 43 -50
76 9 19 20 25 44 26 31 2 31 2 5 6 -31 5 -62 45 -53 68 4 11 2 14 -7 8 -24
-15 -50 -13 -62 4 -10 14 -10 21 2 40 20 30 48 29 69 -2 9 -14 20 -22 25 -20
4 3 -1 15 -11 25 -11 11 -20 26 -20 34 0 8 -6 14 -12 13 -46 -1 -64 17 -53 54
9 27 61 26 75 -1 7 -13 20 -20 38 -19 21 1 22 2 7 6 -29 7 -55 33 -55 55 0 13
-7 18 -29 18 -41 0 -59 25 -36 50 24 26 62 26 70 0 5 -16 14 -20 43 -18 36 1
36 1 5 5 -24 3 -35 12 -45 34 -11 25 -30 35 -60 30 -4 0 -10 8 -13 19 -8 26
11 60 35 60 22 0 44 -34 36 -56 -4 -11 -2 -11 13 -2 18 11 18 12 -2 40 -17 23
-19 32 -9 53 9 19 20 25 44 26 l33 1 -30 7 c-17 3 -35 17 -44 33 -14 24 -14
28 3 47 11 12 31 21 46 21 19 0 30 7 38 25 8 18 19 25 40 25 21 0 32 7 40 25
8 17 20 25 36 25 14 0 31 7 38 15 33 39 41 45 64 45 14 0 22 4 19 10 -3 6 -17
10 -30 10 -15 0 -26 7 -30 20 -15 47 56 71 76 27 14 -32 72 -26 88 9 8 19 18
24 46 24 24 0 35 5 35 14 0 22 29 46 55 46 13 0 29 10 39 25 11 17 26 25 45
25 20 0 31 7 39 24 18 41 78 41 88 0z m-1052 10 c29 -28 17 -57 -26 -62 -36
-4 -53 26 -32 56 18 26 37 28 58 6z m170 -12 c0 -12 3 -19 8 -16 4 3 8 2 8 -3
0 -16 -15 -28 -35 -28 -43 1 -58 30 -30 58 21 21 50 14 49 -11z m-329 -1 c9
-30 -5 -51 -36 -51 -33 0 -52 26 -38 52 13 25 66 24 74 -1z m1027 -4 c6 -34
-1 -47 -26 -47 -30 0 -44 16 -38 46 6 34 58 35 64 1z m319 -21 c5 3 9 0 9 -6
0 -15 -23 -7 -26 8 -1 7 0 8 3 2 2 -5 9 -8 14 -4z m-1421 -43 c0 -8 12 -13 35
-13 41 0 58 -23 42 -57 -14 -32 -67 -29 -82 5 -7 16 -18 22 -42 22 -58 0 -67
73 -11 82 25 4 58 -18 58 -39z m160 17 c17 -32 -4 -62 -38 -54 -37 9 -42 13
-42 33 0 41 61 57 80 21z m170 0 c16 -30 -3 -59 -34 -53 -36 7 -50 27 -36 52
14 27 56 28 70 1z m690 0 c23 -42 -25 -73 -64 -41 -11 9 -12 18 -5 35 13 29
55 32 69 6z m510 -35 c-7 -9 -15 -13 -17 -11 -6 6 20 36 26 30 2 -2 -2 -10 -9
-19z m-1290 -15 c18 -33 4 -59 -28 -54 -37 7 -46 18 -38 48 8 33 50 36 66 6z
m690 -6 c13 -33 6 -44 -30 -44 -38 0 -55 28 -32 52 25 25 51 22 62 -8z m-180
6 c0 -5 -2 -10 -4 -10 -3 0 -8 5 -11 10 -3 6 -1 10 4 10 6 0 11 -4 11 -10z
m840 0 c0 -5 -2 -10 -4 -10 -3 0 -8 5 -11 10 -3 6 -1 10 4 10 6 0 11 -4 11
-10z m24 -39 c-18 -18 -48 -16 -52 2 -2 10 3 17 13 17 9 0 14 -4 11 -8 -3 -5
1 -9 8 -9 9 0 13 9 10 26 -3 26 -3 26 8 3 7 -14 8 -26 2 -31z m-883 19 c6 0 7
-5 3 -12 -5 -8 -2 -9 9 -5 10 3 17 2 17 -3 0 -16 -23 -11 -50 11 -18 15 -20
19 -7 15 10 -3 23 -6 28 -6z m-736 -37 c14 -34 68 -32 83 2 9 20 19 25 47 25
29 0 36 -4 41 -27 9 -36 -7 -58 -44 -58 -22 0 -32 -5 -36 -18 -3 -14 -2 -16 9
-7 23 19 59 8 69 -21 14 -41 2 -59 -39 -59 -19 0 -35 -4 -35 -10 0 -5 13 -10
28 -10 36 0 52 -17 52 -53 0 -20 -6 -30 -19 -34 -19 -5 -19 -5 0 -24 21 -21
25 -59 7 -77 -7 -7 -26 -13 -42 -13 -31 -2 -31 -2 4 -8 69 -12 74 -91 5 -91
-19 0 -35 -4 -35 -10 0 -5 15 -10 33 -10 26 0 36 -6 45 -24 15 -33 -9 -66 -49
-66 -16 0 -29 -4 -29 -8 0 -5 13 -7 29 -4 23 3 33 -2 46 -22 16 -24 16 -28 1
-50 -10 -16 -28 -26 -48 -29 l-33 -4 36 -1 c28 -2 38 -8 47 -28 18 -37 0 -64
-42 -64 -20 0 -36 -6 -39 -14 -5 -12 0 -12 26 -5 26 7 34 6 45 -8 30 -41 4
-89 -42 -77 -19 4 -26 2 -26 -9 0 -10 8 -13 25 -9 33 6 55 -14 55 -48 0 -35
-21 -53 -54 -44 -16 4 -26 2 -26 -4 0 -6 14 -12 31 -14 38 -4 54 -26 45 -61
-5 -23 -12 -27 -40 -27 -20 0 -36 -6 -39 -14 -5 -12 0 -12 26 -5 26 7 34 6 45
-8 7 -10 12 -29 10 -43 -3 -21 -9 -25 -40 -28 -23 -2 -38 -8 -38 -16 0 -23
-38 -49 -65 -44 -16 3 -25 1 -25 -7 0 -8 12 -12 33 -11 23 1 37 8 50 29 23 37
67 35 81 -4 14 -40 2 -59 -37 -59 -26 0 -36 -6 -45 -25 -9 -19 -19 -25 -45
-25 -27 0 -35 -5 -44 -30 -13 -35 -50 -41 -77 -11 -14 15 -15 23 -5 45 13 28
55 36 76 15 9 -9 10 -7 6 10 -4 16 -13 21 -39 21 -23 0 -37 6 -44 20 -21 39
17 70 73 61 4 0 7 6 7 14 0 10 -10 15 -34 15 -44 0 -63 22 -48 55 9 20 19 25
47 25 19 0 35 5 35 10 0 6 -16 10 -35 10 -24 0 -37 6 -45 21 -17 31 11 69 51
69 17 0 28 4 25 9 -3 4 -16 6 -30 4 -18 -4 -29 2 -41 20 -28 43 6 78 68 68 4
0 7 4 7 9 0 6 -13 10 -29 10 -16 0 -37 7 -45 16 -19 18 -19 17 -4 49 9 20 18
25 45 25 20 0 32 4 28 10 -3 6 -19 10 -35 10 -36 0 -56 30 -40 60 11 21 52 36
69 25 6 -3 11 -1 11 4 0 6 -13 11 -28 11 -16 0 -37 9 -47 20 -16 18 -17 23 -5
45 10 19 21 25 47 25 29 0 49 18 23 21 -5 1 -14 3 -20 4 -5 1 -19 3 -29 4 -51
3 -23 81 30 81 18 0 28 4 24 10 -3 6 -19 10 -34 10 -39 0 -57 23 -43 55 11 23
27 29 70 28 6 -1 12 3 12 8 0 5 -13 9 -28 9 -16 0 -37 9 -47 20 -16 18 -17 23
-5 45 10 19 21 25 47 25 18 0 33 5 33 11 0 7 -9 9 -22 6 -47 -13 -79 30 -52
70 12 20 22 24 45 21 20 -3 29 0 29 9 0 8 -12 13 -34 13 -45 0 -64 22 -46 55
12 22 38 32 73 26 4 0 7 4 7 9 0 6 -15 10 -33 10 -45 0 -65 31 -42 66 21 32
65 30 80 -3z m670 -4 c-4 -5 -1 -9 5 -9 7 0 8 -6 1 -18 -10 -19 -52 -23 -58
-6 -2 6 8 16 21 24 14 7 23 18 19 23 -3 6 -1 7 6 3 6 -4 9 -12 6 -17z m1005
10 c0 -6 7 -8 16 -5 8 3 13 2 9 -3 -3 -5 1 -11 7 -14 19 -6 -8 -36 -32 -34
-25 2 -44 33 -24 41 8 3 12 10 9 16 -3 5 -1 10 4 10 6 0 11 -5 11 -11z m-1043
-15 c-3 -3 -12 -4 -19 -1 -8 3 -5 6 6 6 11 1 17 -2 13 -5z m-72 -34 c3 -5 -1
-10 -10 -10 -9 0 -13 5 -10 10 3 6 8 10 10 10 2 0 7 -4 10 -10z m210 -9 c9
-29 -14 -59 -39 -53 -25 6 -46 21 -46 33 0 4 7 15 16 23 22 22 61 20 69 -3z
m1021 -29 c-9 -2 -14 -7 -11 -12 3 -5 -4 -7 -16 -5 -32 6 -33 12 -4 19 17 4
23 11 18 19 -4 7 1 5 12 -3 16 -14 16 -15 1 -18z m-1216 4 c0 -2 -7 -7 -16
-10 -8 -3 -12 -2 -9 4 6 10 25 14 25 6z m15 -16 c-3 -5 -12 -10 -18 -10 -7 0
-6 4 3 10 19 12 23 12 15 0z m87 -13 c14 -26 0 -57 -26 -57 -41 0 -59 36 -31
63 18 19 44 16 57 -6z m-201 -20 c-10 -9 -11 -8 -5 6 3 10 9 15 12 12 3 -3 0
-11 -7 -18z m1365 -2 c-3 -8 0 -16 7 -19 7 -2 5 -5 -4 -5 -18 -1 -33 25 -23
40 8 14 26 -1 20 -16z m-1251 -50 c0 -25 -4 -30 -25 -31 -32 -2 -52 24 -38 49
6 12 18 17 36 15 23 -2 27 -8 27 -33z m-206 1 c9 -11 9 -16 0 -22 -7 -4 -9 -3
-5 4 3 6 2 13 -4 17 -5 3 -10 1 -10 -6 0 -7 -3 -10 -6 -6 -5 5 3 27 10 27 2 0
9 -6 15 -14z m123 -42 c10 -21 9 -27 -3 -35 -22 -14 -56 -11 -63 7 -10 26 -7
34 17 44 33 13 36 12 49 -16z m-92 -39 c18 -21 3 -55 -24 -55 -28 0 -59 31
-38 37 6 3 12 10 12 17 0 17 36 17 50 1z m-120 -54 c0 -5 -7 -12 -16 -15 -14
-5 -15 -4 -4 9 14 17 20 19 20 6z m23 -11 c-3 -11 -10 -23 -16 -27 -5 -3 -8
-2 -5 3 3 5 8 17 11 27 9 24 16 22 10 -3z m187 5 c19 -23 3 -55 -30 -55 -30 0
-44 21 -35 51 8 23 47 25 65 4z m-86 -60 c8 -33 0 -47 -27 -43 -40 6 -58 33
-35 56 22 22 55 14 62 -13z m1606 -28 c0 -2 -9 -12 -20 -22 -24 -21 -27 -14
-4 9 15 15 24 20 24 13z m3 -53 c-2 -7 -11 -10 -19 -7 -17 6 -11 20 10 20 8 0
12 -6 9 -13z m-1605 -16 c5 -8 6 -22 2 -34 -7 -16 -15 -20 -39 -16 -17 2 -28
8 -25 13 3 5 0 9 -6 9 -8 0 -8 6 0 20 12 22 52 27 68 8z m1593 -75 c1 -17 2
-17 6 0 2 9 9 17 14 17 11 0 11 -3 3 -24 -5 -14 -44 -24 -44 -12 0 2 -3 11 -6
20 -4 11 -1 16 10 16 9 0 17 -8 17 -17z m-1597 -29 c10 -26 7 -52 -6 -57 -37
-12 -78 33 -54 60 16 17 53 16 60 -3z m-169 -14 c3 -5 1 -10 -5 -10 -6 0 -9
-4 -5 -9 3 -5 1 -12 -5 -16 -5 -3 -10 1 -10 9 0 10 -6 13 -15 10 -8 -4 -15 -1
-15 4 0 9 15 16 42 21 4 0 10 -3 13 -9z m1791 -42 c10 -12 14 -18 7 -15 -6 4
-14 3 -17 -2 -3 -5 2 -12 12 -16 14 -7 13 -9 -8 -14 -40 -11 -66 29 -38 57 17
17 22 15 44 -10z m-1707 -6 c10 -19 -7 -52 -28 -52 -18 0 -42 27 -39 42 7 31
52 38 67 10z m-101 -45 c6 -5 12 -16 12 -25 -1 -16 -1 -16 -11 1 -5 9 -17 17
-24 17 -8 0 -15 4 -15 9 0 10 19 9 38 -2z m187 -22 c0 -26 -4 -30 -28 -31 -34
-1 -47 14 -36 44 7 18 15 23 36 20 24 -3 28 -8 28 -33z m-192 -15 c3 -13 0
-20 -10 -20 -8 0 -11 5 -7 12 5 7 2 9 -9 5 -9 -3 -18 0 -21 9 -4 10 2 14 18
14 15 0 26 -7 29 -20z m101 -15 c6 -16 -11 -20 -38 -9 -23 9 -19 19 8 22 13 1
27 -5 30 -13z m1716 5 c0 -5 -4 -10 -10 -10 -6 0 -6 -9 -1 -23 7 -19 5 -23
-10 -24 -26 -2 -45 33 -28 53 13 16 49 19 49 4z m-1717 -30 c10 0 15 -5 12
-10 -4 -6 -11 -8 -16 -5 -5 3 -6 0 -3 -8 4 -11 -1 -13 -20 -10 -27 5 -36 22
-13 24 6 0 3 5 -8 10 -17 8 -17 9 5 4 14 -2 33 -5 43 -5z m93 -34 c17 -28 6
-46 -27 -46 -33 0 -52 26 -38 53 13 23 50 19 65 -7z m-166 -14 c0 -4 -11 -7
-25 -7 -29 0 -34 12 -7 18 19 4 32 0 32 -11z m251 -38 c17 -21 0 -48 -33 -52
-28 -3 -40 14 -31 47 6 25 44 28 64 5z m-171 -27 c0 -4 -10 -2 -22 5 -13 7
-27 11 -31 10 -5 -1 -6 2 -3 7 7 10 56 -9 56 -22z m1710 19 c-19 -18 -48 -24
-52 -11 -2 5 11 13 27 16 17 4 32 7 35 8 2 0 -2 -5 -10 -13z m-1810 -36 c0 -5
-2 -10 -4 -10 -3 0 -8 5 -11 10 -3 6 -1 10 4 10 6 0 11 -4 11 -10z m185 -7
c17 -23 2 -53 -27 -53 -30 0 -49 29 -34 52 14 23 45 23 61 1z m-200 -43 c3 -5
-1 -10 -10 -10 -9 0 -13 5 -10 10 3 6 8 10 10 10 2 0 7 -4 10 -10z m195 -60
c0 -3 -6 -12 -12 -19 -11 -10 -9 -11 7 -5 12 4 17 3 12 -2 -5 -5 -22 -9 -38
-10 -27 -2 -28 -1 -12 13 17 14 17 14 1 9 -20 -6 -25 10 -5 17 16 6 47 4 47
-3z m95 -68 c3 -8 0 -20 -6 -26 -9 -8 -10 -8 -5 2 5 8 -3 12 -31 13 -21 0 -32
3 -25 6 6 2 12 10 12 17 0 18 47 8 55 -12z m82 -45 c12 -27 5 -43 -17 -41 -8
0 -23 2 -32 2 -16 2 -18 28 -3 52 11 18 42 10 52 -13z m87 -53 c13 -34 7 -44
-29 -44 -19 0 -35 5 -35 11 0 6 7 8 18 4 14 -5 15 -4 5 6 -7 7 -13 19 -13 26
0 19 47 16 54 -3z m1116 -46 c0 -22 -14 -35 -33 -32 -25 3 -31 10 -24 29 7 18
57 21 57 3z m-942 -73 c5 -22 -18 -46 -25 -26 -5 11 -7 11 -14 0 -7 -12 -11
-11 -26 4 -16 16 -16 17 7 18 23 0 23 1 5 9 -18 8 -18 9 -2 9 10 1 15 5 12 11
-4 6 2 7 17 1 13 -4 25 -16 26 -26z m854 21 c13 -19 9 -34 -9 -31 -10 2 -26 4
-36 4 -14 1 -16 5 -8 19 11 21 42 25 53 8z m-1457 -55 c9 -30 -5 -51 -35 -51
-33 0 -49 32 -30 55 18 21 57 19 65 -4z m1373 -8 c3 -18 -2 -23 -18 -23 -13 0
-19 4 -14 12 4 7 3 8 -5 4 -15 -9 -5 -26 16 -26 9 0 14 -3 10 -6 -3 -3 -15 -3
-26 1 -16 5 -21 14 -19 34 2 22 7 27 27 26 19 0 27 -6 29 -22z m-1463 -44 c13
-20 -4 -59 -27 -59 -28 0 -49 29 -37 52 11 20 54 24 64 7z m174 -7 c13 -24 -4
-52 -33 -52 -26 0 -40 23 -31 51 8 24 51 25 64 1z m687 1 c7 -10 14 -21 14
-25 0 -14 -28 -8 -34 7 -3 8 -11 12 -19 9 -8 -3 -14 2 -14 11 0 21 37 19 53
-2z m512 5 c7 -7 12 -16 12 -22 0 -5 -6 -2 -13 8 -12 17 -14 17 -20 2 -9 -23
-27 -20 -27 4 0 23 29 27 48 8z m-12 -27 c-4 -5 -3 -11 1 -14 5 -2 2 -2 -4 -1
-7 2 -13 -2 -13 -8 0 -6 -3 -8 -6 -5 -4 4 -1 13 6 22 14 16 25 21 16 6z
m-1447 -29 c12 -23 -3 -42 -35 -42 -26 0 -39 27 -23 46 16 20 47 17 58 -4z
m170 0 c12 -22 3 -38 -24 -44 -26 -5 -46 21 -34 44 13 23 46 23 58 0z m175 2
c9 -22 -11 -54 -34 -54 -21 0 -37 40 -25 59 10 17 52 13 59 -5z m646 6 c0 -5
-5 -10 -11 -10 -5 0 -7 5 -4 10 3 6 8 10 11 10 2 0 4 -4 4 -10z m40 -4 c0 -2
-7 -9 -15 -16 -13 -11 -14 -10 -9 4 5 14 24 23 24 12z m10 -26 c0 -5 -5 -10
-11 -10 -5 0 -7 5 -4 10 3 6 8 10 11 10 2 0 4 -4 4 -10z m-956 -35 c4 -12 -2
-14 -27 -11 -18 3 -33 5 -35 5 -2 1 0 6 3 11 10 15 52 12 59 -5z m173 -2 c4
-9 1 -19 -5 -21 -7 -2 -10 -8 -6 -13 8 -13 -30 -11 -43 2 -6 6 -8 19 -6 30 7
24 51 26 60 2z m176 -2 c9 -38 -44 -58 -61 -23 -14 26 -3 42 28 42 19 0 29 -6
33 -19z m-353 -30 c0 -4 -11 -7 -25 -7 -24 0 -31 7 -19 18 7 7 44 -2 44 -11z
m86 -27 c2 -12 -1 -13 -12 -3 -7 6 -11 16 -8 21 7 11 17 3 20 -18z m127 6 c-3
-12 -8 -19 -11 -16 -5 6 5 36 12 36 2 0 2 -9 -1 -20z m44 14 c-3 -3 -12 -4
-19 -1 -8 3 -5 6 6 6 11 1 17 -2 13 -5z m177 -11 c8 -20 -7 -36 -33 -38 -21
-2 -34 17 -25 38 7 19 51 19 58 0z m-164 -7 c0 -3 -4 -8 -10 -11 -5 -3 -10 -1
-10 4 0 6 5 11 10 11 6 0 10 -2 10 -4z m251 -48 c6 -11 5 -19 -3 -24 -7 -5 -8
-3 -3 6 6 10 4 12 -7 7 -9 -3 -22 0 -29 6 -8 7 -3 0 10 -15 14 -16 19 -28 13
-28 -7 0 -12 4 -12 10 0 5 -6 7 -14 4 -12 -5 -14 10 -7 48 2 14 43 3 52 -14z
m79 -43 c11 -14 10 -14 -12 -6 -14 5 -29 7 -34 3 -4 -4 -4 -1 0 6 10 17 31 15
46 -3z m99 -79 c-3 -3 -11 5 -18 17 -13 21 -12 21 5 5 10 -10 16 -20 13 -22z"/>
<path d="M2918 3023 c7 -3 16 -2 19 1 4 3 -2 6 -13 5 -11 0 -14 -3 -6 -6z"/>
<path d="M3118 2603 c7 -3 16 -2 19 1 4 3 -2 6 -13 5 -11 0 -14 -3 -6 -6z"/>
<path d="M3093 2283 c9 -2 25 -2 35 0 9 3 1 5 -18 5 -19 0 -27 -2 -17 -5z"/>
<path d="M2143 2013 c9 -2 25 -2 35 0 9 3 1 5 -18 5 -19 0 -27 -2 -17 -5z"/>
<path d="M1980 1966 c0 -8 4 -17 9 -20 5 -4 7 3 4 14 -6 23 -13 26 -13 6z"/>
<path d="M2488 1803 c12 -2 30 -2 40 0 9 3 -1 5 -23 4 -22 0 -30 -2 -17 -4z"/>
<path d="M2315 3330 c-3 -6 1 -7 9 -4 18 7 21 14 7 14 -6 0 -13 -4 -16 -10z"/>
<path d="M1256 3093 c4 -15 14 -19 40 -19 40 1 46 16 6 16 -15 0 -33 5 -39 11
-9 9 -11 7 -7 -8z"/>
<path d="M1260 2978 c0 -4 16 -8 35 -8 19 0 35 2 35 4 0 2 -16 6 -35 8 -19 2
-35 0 -35 -4z"/>
<path d="M1346 2915 c-4 -13 -2 -14 14 -5 23 13 26 20 6 20 -8 0 -16 -7 -20
-15z"/>
<path d="M1260 2872 c0 -5 16 -9 35 -10 19 -1 35 3 35 8 0 6 -16 10 -35 10
-19 0 -35 -4 -35 -8z"/>
<path d="M1260 2768 c0 -4 16 -8 35 -8 46 0 46 15 0 16 -19 0 -35 -3 -35 -8z"/>
<path d="M1298 2673 c-47 -5 -50 -23 -4 -23 21 0 36 6 40 15 3 8 4 14 3 13 -1
-1 -19 -3 -39 -5z"/>
<path d="M1264 2552 c5 -8 66 -4 66 4 0 2 -16 4 -36 4 -19 0 -33 -4 -30 -8z"/>
<path d="M1260 2450 c0 -5 17 -10 38 -9 33 1 34 2 12 9 -36 11 -50 11 -50 0z"/>
<path d="M1260 2340 c0 -5 16 -10 35 -10 19 0 35 5 35 10 0 6 -16 10 -35 10
-19 0 -35 -4 -35 -10z"/>
<path d="M1260 2230 c0 -5 14 -7 33 -3 45 8 47 13 4 13 -20 0 -37 -4 -37 -10z"/>
<path d="M1298 2143 c-47 -5 -50 -23 -4 -23 21 0 36 6 40 15 3 8 4 14 3 13 -1
-1 -19 -3 -39 -5z"/>
<path d="M1260 2023 c0 -8 13 -13 34 -13 19 0 36 6 39 13 3 8 -7 12 -34 12
-25 0 -39 -5 -39 -12z"/>
<path d="M2918 3189 c-4 -10 1 -15 13 -16 10 -1 19 3 19 8 0 6 -4 8 -9 5 -5
-4 -11 -1 -13 6 -3 8 -6 7 -10 -3z"/>
<path d="M1803 2086 c-10 -11 -9 -15 2 -20 10 -4 15 1 15 14 0 23 -1 24 -17 6z"/>
<path d="M1543 1705 c-9 -10 -10 -16 -2 -21 15 -9 36 13 24 25 -6 6 -15 4 -22
-4z"/>
<path d="M1790 1650 c0 -5 7 -7 15 -4 8 4 15 8 15 10 0 2 -7 4 -15 4 -8 0 -15
-4 -15 -10z"/>
</g>
</svg>
